# xmcd
#
# Track frame offsets:
#	150
#	19177
#	34828
#	45758
#	63521
#	80947
#	96109
#	114376
#	131168
#	141949
#	155902
#	171606
#	184080
#	196328
#	213337
#	225989
#	240281
#	253011
#
# Disc length: 3559 seconds
# Revision: 0
# Processed by: cddbd v1.5.2PL0 Copyright (c) Steve Scherf et al.
# Submitted via: dBpowerAMP V12.0
#
DISCID=fc0de512
DTITLE=Alice Knight - Way Out In The West
DYEAR=2008
DGENRE=
TTITLE0=Me And This Old Car
TTITLE1=Another Car In The Parking Lot
TTITLE2=Cold Light Of Day
TTITLE3=Silver Spurs
TTITLE4=Down In Terlingua
TTITLE5=Too Many Memories
TTITLE6=My Purple Sage
TTITLE7=Stoned Out Affection
TTITLE8=Rocky Road
TTITLE9=Old Shoe
TTITLE10=The Chapparral
TTITLE11=Just A Fool In Love
TTITLE12=My Roots Are Showing
TTITLE13=She Sings Nice
TTITLE14=Valentine, Texas
TTITLE15=Lone Star Lover
TTITLE16=What A Price
TTITLE17=Let Me Ride With You To Texs
EXTD=
EXTT0=
EXTT1=
EXTT2=
EXTT3=
EXTT4=
EXTT5=
EXTT6=
EXTT7=
EXTT8=
EXTT9=
EXTT10=
EXTT11=
EXTT12=
EXTT13=
EXTT14=
EXTT15=
EXTT16=
EXTT17=
PLAYORDER=
